#N canvas 141 95 450 300 10;
#X msg 86 31 devices;
#X obj 86 61 comport 1 57600;
#X obj 86 95 cyclone/match 253 254 nn nn 255;
#X obj 86 140 unpack f f f f f;
#X obj 140 176 << 8;
#X obj 140 202 +;
#X floatatom 140 230 5 0 0 0 - - -, f 5;
#X msg 364 91 \; pd dsp 1;
#X obj 364 20 loadbang;
#X obj 364 60 del 100;
#X text 280 59 important ->;
#X obj 240 263 dac~;
#X obj 237 177 osc~ 400;
#X obj 291 177 osc~ 404;
#X obj 240 215 *~ 0.2;
#X obj 282 215 *~ 0.2;
#X obj 237 154 + 400;
#X obj 291 154 + 404;
#X obj 140 263 print;
#X connect 0 0 1 0;
#X connect 1 0 2 0;
#X connect 2 0 3 0;
#X connect 3 2 4 0;
#X connect 3 3 5 1;
#X connect 4 0 5 0;
#X connect 5 0 6 0;
#X connect 6 0 16 0;
#X connect 6 0 17 0;
#X connect 6 0 18 0;
#X connect 8 0 9 0;
#X connect 9 0 7 0;
#X connect 12 0 14 0;
#X connect 13 0 15 0;
#X connect 14 0 11 0;
#X connect 15 0 11 1;
#X connect 16 0 12 0;
#X connect 17 0 13 0;
