#N canvas 1068 88 450 300 10;
#X obj 238 159 dac~;
#X obj 235 73 osc~ 400;
#X obj 289 73 osc~ 404;
#X msg 126 154 \; pd dsp 1;
#X obj 126 83 loadbang;
#X obj 126 123 del 100;
#X text 42 122 important ->;
#X obj 238 111 *~ 0.2;
#X obj 280 111 *~ 0.2;
#X connect 1 0 7 0;
#X connect 2 0 8 0;
#X connect 4 0 5 0;
#X connect 5 0 3 0;
#X connect 7 0 0 0;
#X connect 8 0 0 1;
